<mxfile host="app.diagrams.net" modified="2023-07-16T01:53:49.226Z" agent="Mozilla/5.0 (Windows NT 10.0; Win64; x64; rv:109.0) Gecko/20100101 Firefox/115.0" etag="wDiQpDE6Gsg5WqbeT7xZ" version="21.6.2" type="github">
  <diagram id="R2lEEEUBdFMjLlhIrx00" name="Page-1">
    <mxGraphModel dx="1434" dy="764" grid="1" gridSize="10" guides="1" tooltips="1" connect="1" arrows="1" fold="1" page="1" pageScale="1" pageWidth="850" pageHeight="1100" math="0" shadow="0" extFonts="Permanent Marker^https://fonts.googleapis.com/css?family=Permanent+Marker">
      <root>
        <mxCell id="0" />
        <mxCell id="1" parent="0" />
        <object label="Note" id="VQeO6nDnTUrIf2RDV7d5-27">
          <mxCell style="shape=table;startSize=30;container=1;collapsible=0;childLayout=tableLayout;fixedRows=1;rowLines=0;fontStyle=0;strokeColor=default;fontSize=16;" vertex="1" parent="1">
            <mxGeometry x="130" y="170" width="390" height="180" as="geometry" />
          </mxCell>
        </object>
        <mxCell id="VQeO6nDnTUrIf2RDV7d5-28" value="" style="shape=tableRow;horizontal=0;startSize=0;swimlaneHead=0;swimlaneBody=0;top=0;left=0;bottom=0;right=0;collapsible=0;dropTarget=0;fillColor=none;points=[[0,0.5],[1,0.5]];portConstraint=eastwest;strokeColor=inherit;fontSize=16;" vertex="1" parent="VQeO6nDnTUrIf2RDV7d5-27">
          <mxGeometry y="30" width="390" height="30" as="geometry" />
        </mxCell>
        <mxCell id="VQeO6nDnTUrIf2RDV7d5-29" value="1" style="shape=partialRectangle;html=1;whiteSpace=wrap;connectable=0;fillColor=none;top=0;left=0;bottom=0;right=0;overflow=hidden;pointerEvents=1;strokeColor=inherit;fontSize=16;" vertex="1" parent="VQeO6nDnTUrIf2RDV7d5-28">
          <mxGeometry width="87" height="30" as="geometry">
            <mxRectangle width="87" height="30" as="alternateBounds" />
          </mxGeometry>
        </mxCell>
        <mxCell id="VQeO6nDnTUrIf2RDV7d5-30" value="CreatedDate" style="shape=partialRectangle;html=1;whiteSpace=wrap;connectable=0;fillColor=none;top=0;left=0;bottom=0;right=0;align=left;spacingLeft=6;overflow=hidden;strokeColor=inherit;fontSize=16;" vertex="1" parent="VQeO6nDnTUrIf2RDV7d5-28">
          <mxGeometry x="87" width="303" height="30" as="geometry">
            <mxRectangle width="303" height="30" as="alternateBounds" />
          </mxGeometry>
        </mxCell>
        <mxCell id="VQeO6nDnTUrIf2RDV7d5-31" value="" style="shape=tableRow;horizontal=0;startSize=0;swimlaneHead=0;swimlaneBody=0;top=0;left=0;bottom=0;right=0;collapsible=0;dropTarget=0;fillColor=none;points=[[0,0.5],[1,0.5]];portConstraint=eastwest;strokeColor=inherit;fontSize=16;" vertex="1" parent="VQeO6nDnTUrIf2RDV7d5-27">
          <mxGeometry y="60" width="390" height="30" as="geometry" />
        </mxCell>
        <mxCell id="VQeO6nDnTUrIf2RDV7d5-32" value="2" style="shape=partialRectangle;html=1;whiteSpace=wrap;connectable=0;fillColor=none;top=0;left=0;bottom=0;right=0;overflow=hidden;strokeColor=inherit;fontSize=16;" vertex="1" parent="VQeO6nDnTUrIf2RDV7d5-31">
          <mxGeometry width="87" height="30" as="geometry">
            <mxRectangle width="87" height="30" as="alternateBounds" />
          </mxGeometry>
        </mxCell>
        <mxCell id="VQeO6nDnTUrIf2RDV7d5-33" value="ModifiedDate" style="shape=partialRectangle;html=1;whiteSpace=wrap;connectable=0;fillColor=none;top=0;left=0;bottom=0;right=0;align=left;spacingLeft=6;overflow=hidden;strokeColor=inherit;fontSize=16;" vertex="1" parent="VQeO6nDnTUrIf2RDV7d5-31">
          <mxGeometry x="87" width="303" height="30" as="geometry">
            <mxRectangle width="303" height="30" as="alternateBounds" />
          </mxGeometry>
        </mxCell>
        <mxCell id="VQeO6nDnTUrIf2RDV7d5-37" style="shape=tableRow;horizontal=0;startSize=0;swimlaneHead=0;swimlaneBody=0;top=0;left=0;bottom=0;right=0;collapsible=0;dropTarget=0;fillColor=none;points=[[0,0.5],[1,0.5]];portConstraint=eastwest;strokeColor=inherit;fontSize=16;" vertex="1" parent="VQeO6nDnTUrIf2RDV7d5-27">
          <mxGeometry y="90" width="390" height="30" as="geometry" />
        </mxCell>
        <mxCell id="VQeO6nDnTUrIf2RDV7d5-38" value="3" style="shape=partialRectangle;html=1;whiteSpace=wrap;connectable=0;fillColor=none;top=0;left=0;bottom=0;right=0;overflow=hidden;strokeColor=inherit;fontSize=16;" vertex="1" parent="VQeO6nDnTUrIf2RDV7d5-37">
          <mxGeometry width="87" height="30" as="geometry">
            <mxRectangle width="87" height="30" as="alternateBounds" />
          </mxGeometry>
        </mxCell>
        <mxCell id="VQeO6nDnTUrIf2RDV7d5-39" value="UserID" style="shape=partialRectangle;html=1;whiteSpace=wrap;connectable=0;fillColor=none;top=0;left=0;bottom=0;right=0;align=left;spacingLeft=6;overflow=hidden;strokeColor=inherit;fontSize=16;" vertex="1" parent="VQeO6nDnTUrIf2RDV7d5-37">
          <mxGeometry x="87" width="303" height="30" as="geometry">
            <mxRectangle width="303" height="30" as="alternateBounds" />
          </mxGeometry>
        </mxCell>
        <mxCell id="VQeO6nDnTUrIf2RDV7d5-40" style="shape=tableRow;horizontal=0;startSize=0;swimlaneHead=0;swimlaneBody=0;top=0;left=0;bottom=0;right=0;collapsible=0;dropTarget=0;fillColor=none;points=[[0,0.5],[1,0.5]];portConstraint=eastwest;strokeColor=inherit;fontSize=16;" vertex="1" parent="VQeO6nDnTUrIf2RDV7d5-27">
          <mxGeometry y="120" width="390" height="30" as="geometry" />
        </mxCell>
        <mxCell id="VQeO6nDnTUrIf2RDV7d5-41" value="4" style="shape=partialRectangle;html=1;whiteSpace=wrap;connectable=0;fillColor=none;top=0;left=0;bottom=0;right=0;overflow=hidden;strokeColor=inherit;fontSize=16;" vertex="1" parent="VQeO6nDnTUrIf2RDV7d5-40">
          <mxGeometry width="87" height="30" as="geometry">
            <mxRectangle width="87" height="30" as="alternateBounds" />
          </mxGeometry>
        </mxCell>
        <mxCell id="VQeO6nDnTUrIf2RDV7d5-42" value="Content" style="shape=partialRectangle;html=1;whiteSpace=wrap;connectable=0;fillColor=none;top=0;left=0;bottom=0;right=0;align=left;spacingLeft=6;overflow=hidden;strokeColor=inherit;fontSize=16;" vertex="1" parent="VQeO6nDnTUrIf2RDV7d5-40">
          <mxGeometry x="87" width="303" height="30" as="geometry">
            <mxRectangle width="303" height="30" as="alternateBounds" />
          </mxGeometry>
        </mxCell>
        <mxCell id="VQeO6nDnTUrIf2RDV7d5-47" style="shape=tableRow;horizontal=0;startSize=0;swimlaneHead=0;swimlaneBody=0;top=0;left=0;bottom=0;right=0;collapsible=0;dropTarget=0;fillColor=none;points=[[0,0.5],[1,0.5]];portConstraint=eastwest;strokeColor=inherit;fontSize=16;" vertex="1" parent="VQeO6nDnTUrIf2RDV7d5-27">
          <mxGeometry y="150" width="390" height="30" as="geometry" />
        </mxCell>
        <mxCell id="VQeO6nDnTUrIf2RDV7d5-48" value="5" style="shape=partialRectangle;html=1;whiteSpace=wrap;connectable=0;fillColor=none;top=0;left=0;bottom=0;right=0;overflow=hidden;strokeColor=inherit;fontSize=16;" vertex="1" parent="VQeO6nDnTUrIf2RDV7d5-47">
          <mxGeometry width="87" height="30" as="geometry">
            <mxRectangle width="87" height="30" as="alternateBounds" />
          </mxGeometry>
        </mxCell>
        <mxCell id="VQeO6nDnTUrIf2RDV7d5-49" style="shape=partialRectangle;html=1;whiteSpace=wrap;connectable=0;fillColor=none;top=0;left=0;bottom=0;right=0;align=left;spacingLeft=6;overflow=hidden;strokeColor=inherit;fontSize=16;" vertex="1" parent="VQeO6nDnTUrIf2RDV7d5-47">
          <mxGeometry x="87" width="303" height="30" as="geometry">
            <mxRectangle width="303" height="30" as="alternateBounds" />
          </mxGeometry>
        </mxCell>
      </root>
    </mxGraphModel>
  </diagram>
</mxfile>
